<?xml version="1.0" encoding="utf-8"?>
<!-- Generator: Adobe Illustrator 25.1.0, SVG Export Plug-In . SVG Version: 6.00 Build 0)  -->
<svg version="1.1" id="Layer_1" xmlns="http://www.w3.org/2000/svg" xmlns:xlink="http://www.w3.org/1999/xlink" x="0px" y="0px"
	 viewBox="0 0 1600 1200" style="enable-background:new 0 0 1600 1200;" xml:space="preserve">
<style type="text/css">
	.st0{enable-background:new    ;}
	.st1{clip-path:url(#SVGID_2_);fill:none;stroke:#000000;stroke-width:0.25;stroke-miterlimit:10;}
	.st2{clip-path:url(#SVGID_2_);}
	.st3{clip-path:url(#SVGID_6_);fill:none;stroke:#000000;stroke-width:0.25;stroke-miterlimit:10;}
	.st4{clip-path:url(#SVGID_6_);}
	.st5{clip-path:url(#SVGID_10_);fill:none;stroke:#000000;stroke-width:0.25;stroke-miterlimit:10;}
	.st6{clip-path:url(#SVGID_12_);fill:none;stroke:#000000;stroke-width:0.25;stroke-miterlimit:10;}
	.st7{clip-path:url(#SVGID_14_);fill:none;stroke:#000000;stroke-width:0.25;stroke-miterlimit:10;}
	.st8{clip-path:url(#SVGID_16_);fill:none;stroke:#000000;stroke-width:0.25;stroke-miterlimit:10;}
</style>
<g>
	<g>
		<g class="st0">
			<g class="st0">
				<defs>
					<polygon id="SVGID_1_" class="st0" points="-2504,440 -2501.8,-712.8 -1077.8,-912.9 -1079.9,239.9 					"/>
				</defs>
				<clipPath id="SVGID_2_">
					<use xlink:href="#SVGID_1_"  style="overflow:visible;"/>
				</clipPath>
				<polygon class="st1" points="-2504,440 -2501.8,-712.8 -1077.8,-912.9 -1079.9,239.9 				"/>
				<g class="st2">
					<g>
						<g>
							<defs>
								<polyline id="SVGID_3_" points="-1079.9,239.9 -1079.9,239.9 -2504,440 -2501.8,-712.8 -1077.8,-912.9 -1079.9,239.9 
																	"/>
							</defs>
							<clipPath id="SVGID_4_">
								<use xlink:href="#SVGID_3_"  style="overflow:visible;"/>
							</clipPath>
							<g style="clip-path:url(#SVGID_4_);">
								
									<image style="overflow:visible;" width="1427" height="1353" xlink:href="797E3A3.png"  transform="matrix(1 0 0 1 -2503.9792 -912.9114)">
								</image>
							</g>
						</g>
					</g>
				</g>
			</g>
			<g class="st0">
				<defs>
					<polygon id="SVGID_5_" class="st0" points="-1634.6,912.9 -1632.5,-239.9 -208.4,-440 -210.6,712.8 					"/>
				</defs>
				<clipPath id="SVGID_6_">
					<use xlink:href="#SVGID_5_"  style="overflow:visible;"/>
				</clipPath>
				<polygon class="st3" points="-1634.6,912.9 -1632.5,-239.9 -208.4,-440 -210.6,712.8 				"/>
				<g class="st4">
					<g>
						<g>
							<defs>
								<polyline id="SVGID_7_" points="-210.6,712.8 -210.6,712.8 -1634.6,912.9 -1632.5,-239.9 -208.4,-440 -210.6,712.8 								
									"/>
							</defs>
							<clipPath id="SVGID_8_">
								<use xlink:href="#SVGID_7_"  style="overflow:visible;"/>
							</clipPath>
							<g style="clip-path:url(#SVGID_8_);">
								
									<image style="overflow:visible;" width="1427" height="1353" xlink:href="797E3A1.png"  transform="matrix(1 0 0 1 -1634.6443 -440.0016)">
								</image>
							</g>
						</g>
					</g>
				</g>
			</g>
			<g class="st0">
				<defs>
					<polygon id="SVGID_9_" class="st0" points="-1634.6,912.9 -2504,440 -2501.8,-712.8 -1632.5,-239.9 					"/>
				</defs>
				<clipPath id="SVGID_10_">
					<use xlink:href="#SVGID_9_"  style="overflow:visible;"/>
				</clipPath>
				<polygon class="st5" points="-1634.6,912.9 -2504,440 -2501.8,-712.8 -1632.5,-239.9 				"/>
			</g>
			<g class="st0">
				<defs>
					<polygon id="SVGID_11_" class="st0" points="-1632.5,-239.9 -2501.8,-712.8 -1077.8,-912.9 -208.4,-440 					"/>
				</defs>
				<clipPath id="SVGID_12_">
					<use xlink:href="#SVGID_11_"  style="overflow:visible;"/>
				</clipPath>
				<polygon class="st6" points="-1632.5,-239.9 -2501.8,-712.8 -1077.8,-912.9 -208.4,-440 				"/>
			</g>
			<g class="st0">
				<defs>
					<polygon id="SVGID_13_" class="st0" points="-208.4,-440 -210.6,712.8 -1079.9,239.9 -1077.8,-912.9 					"/>
				</defs>
				<clipPath id="SVGID_14_">
					<use xlink:href="#SVGID_13_"  style="overflow:visible;"/>
				</clipPath>
				<polygon class="st7" points="-208.4,-440 -210.6,712.8 -1079.9,239.9 -1077.8,-912.9 				"/>
			</g>
			<g class="st0">
				<defs>
					<polygon id="SVGID_15_" class="st0" points="-210.6,712.8 -1634.6,912.9 -2504,440 -1079.9,239.9 					"/>
				</defs>
				<clipPath id="SVGID_16_">
					<use xlink:href="#SVGID_15_"  style="overflow:visible;"/>
				</clipPath>
				<polygon class="st8" points="-210.6,712.8 -1634.6,912.9 -2504,440 -1079.9,239.9 				"/>
			</g>
		</g>
	</g>
</g>
</svg>
